<?xml version="1.0" encoding="UTF-8"?>
<svg width="1200" height="800" viewBox="0 0 1200 800" fill="none" xmlns="http://www.w3.org/2000/svg">
  <defs>
    <linearGradient id="g" x1="0" y1="0" x2="1" y2="1">
      <stop offset="0%" stop-color="#b8f3cf"/>
      <stop offset="100%" stop-color="#77e09f"/>
    </linearGradient>
  </defs>
  <rect width="1200" height="800" fill="url(#g)"/>
  <g opacity="0.3">
    <circle cx="200" cy="200" r="140" fill="#2bb673"/>
    <circle cx="360" cy="240" r="90" fill="#1ca35e"/>
    <circle cx="1000" cy="300" r="120" fill="#2bb673"/>
    <circle cx="880" cy="520" r="160" fill="#1ca35e"/>
  </g>
  <g>
    <path d="M320 520c0-110 90-200 200-200s200 90 200 200c0 22-4 43-11 62H331c-7-19-11-40-11-62z" fill="#fff"/>
    <path d="M520 360c-90 0-164 69-174 156h348C684 429 610 360 520 360z" fill="#eaf7ef"/>
    <circle cx="520" cy="520" r="54" fill="#2bb673"/>
    <rect x="380" y="470" width="280" height="18" rx="9" fill="#2bb673" opacity="0.2"/>
  </g>
  <text x="80" y="120" font-family="'Segoe UI', Tahoma, Geneva, Verdana, sans-serif" font-size="56" font-weight="800" fill="#0e5936">EcoTech</text>
  <text x="80" y="170" font-family="'Segoe UI', Tahoma, Geneva, Verdana, sans-serif" font-size="22" fill="#0e5936">Clean energy solutions for a greener future</text>
</svg>